# xmcd
#
# Track frame offsets:
#	150
#	14635
#	27006
#	40023
#	53990
#	69885
#	80699
#	94271
#	115323
#	125337
#	145519
#	160286
#
# Disc length: 2351 seconds
#
# Revision: 0
# Processed by: cddbd v1.5.1PL0 Copyright (c) Steve Scherf et al.
# Submitted via: dBpowerAMP V4.0
#
DISCID=98092d0c
DTITLE=Shirley Bassey - Never, Never, Never
DYEAR=1900
DGENRE=
TTITLE0=Never, Never, Never
TTITLE1=Baby, I'm A Want You
TTITLE2=Someone Who Cares
TTITLE3=The Old Fashioned Way
TTITLE4=I Won't Last A Day Without You
TTITLE5=Somehow
TTITLE6=There's No Such Thing As Love
TTITLE7=Killing Me Softly
TTITLE8=Going, Going Gone
TTITLE9=No Regrets
TTITLE10=Together
TTITLE11=Make The World A Little Younger
EXTD=
EXTT0=
EXTT1=
EXTT2=
EXTT3=
EXTT4=
EXTT5=
EXTT6=
EXTT7=
EXTT8=
EXTT9=
EXTT10=
EXTT11=
PLAYORDER=
